<svg id="Layer_1" data-name="Layer 1" xmlns="http://www.w3.org/2000/svg" viewBox="0 0 1000 1000"><path d="M260.79,575.86l45-5.8H316.9l38.15,5.8v20.75H260.79Zm3.34-233.15h55.2l.55,26.55h-6.31l-49.44-5.79Zm33.95,0h22.08l2.92,133.84V596.61h-25Zm2.34,0H366L435.62,530.8H422.76l65.68-188.09h25.5l-89.15,253.9H395ZM464.09,575.86l49.44-5.8h17.76l56.1,5.8v20.75H464.09Zm28.88-91,1.39-142.19H558.8c-1.15,39.59-1.15,79.78-1.15,119.8v14.3c0,40.36,0,80.56,1.15,119.8h-67C493,557,492.69,516.83,493,484.9ZM525.2,342.71H586v20.76l-54.7,5.79H525.2Z"/><path d="M629.12,585.16c5.21-5.1,10.39-10.18,15-14.89,10.73-11,16.18-18.36,16.18-28.64,0-8.84-4.48-13.94-11.56-13.94a24.16,24.16,0,0,0-10.95,2.51l8.51-5.09L644.51,536c-1.23,7.76-4.94,9.6-8.46,9.6a8.17,8.17,0,0,1-7.42-4.63c.35-12.53,12.29-19.09,26.46-19.09,16.46,0,23.58,8.54,23.58,19.68,0,11-8.26,20-27.16,32.83-4,2.74-8.37,5.84-12.74,9l-1.7-2.11h43.09v14h-51Z"/><path d="M697.3,554A47.93,47.93,0,0,1,715.15,551c17.39,0,28.1,7.78,28.1,22.51,0,15.56-12.94,23.57-30.16,23.57-14.62,0-23.1-7.29-23.8-18.81a7.59,7.59,0,0,1,7.33-5.07c4.65,0,7.28,2.61,8.13,9.6L706,593.09l-3.65-3.78A15.74,15.74,0,0,0,710,591.1c8.31,0,14.09-5.86,14.09-15.67,0-10.56-5.13-16.16-13.82-16.16a44.64,44.64,0,0,0-10.72,1.25l-3.19-2.28,2.39-34.68h41.68v14h-39.4l4.8-10.3-1.94,28.45H697.3Z"/><rect x="622.84" y="342.79" width="123.46" height="123.46" rx="3.9"/><rect x="624.66" y="480.97" width="119.83" height="27.23" rx="1.96"/></svg>